<?xml version="1.0" encoding="UTF-8"?>
<!DOCTYPE svg PUBLIC "-//W3C//DTD SVG 1.1//EN" "http://www.w3.org/Graphics/SVG/1.1/DTD/svg11.dtd">
<svg xmlns="http://www.w3.org/2000/svg" version="1.1" width="161px" height="174px" style="shape-rendering:geometricPrecision; text-rendering:geometricPrecision; image-rendering:optimizeQuality; fill-rule:evenodd; clip-rule:evenodd" xmlns:xlink="http://www.w3.org/1999/xlink">
<g><path style="opacity:1" fill="#f3f3f2" d="M -0.5,-0.5 C 17.5,-0.5 35.5,-0.5 53.5,-0.5C 49.0037,1.13712 44.3371,1.47046 39.5,0.5C 38.3147,1.85301 36.9814,3.01968 35.5,4C 41.5644,5.04206 47.3977,4.54206 53,2.5C 53.5,2.83333 54,3.16667 54.5,3.5C 52.2276,4.13422 50.5609,5.46755 49.5,7.5C 48.8333,8.16667 48.1667,8.83333 47.5,9.5C 45.326,9.74973 43.6594,10.7497 42.5,12.5C 24.5348,22.3139 12.0348,36.9806 5,56.5C 2.17523,65.1098 0.341892,73.7764 -0.5,82.5C -0.5,54.8333 -0.5,27.1667 -0.5,-0.5 Z"/></g>
<g><path style="opacity:1" fill="#f4f2f1" d="M 53.5,-0.5 C 89.1667,-0.5 124.833,-0.5 160.5,-0.5C 160.5,35.5 160.5,71.5 160.5,107.5C 158.433,109.318 157.1,111.651 156.5,114.5C 156.709,115.086 157.043,115.586 157.5,116C 152.527,126.786 147.361,136.952 142,146.5C 136.464,152.038 130.63,157.205 124.5,162C 120.873,162.564 117.707,164.064 115,166.5C 114.617,165.944 114.117,165.611 113.5,165.5C 114.694,164.728 115.694,163.728 116.5,162.5C 133.314,153.175 145.48,139.508 153,121.5C 153.977,119.26 154.477,116.927 154.5,114.5C 162.567,88.4455 159.734,63.4455 146,39.5C 145.292,38.6195 144.458,37.9528 143.5,37.5C 124.846,10.0175 98.8464,-1.48251 65.5,3C 60.1774,4.6085 54.844,6.1085 49.5,7.5C 50.5609,5.46755 52.2276,4.13422 54.5,3.5C 54,3.16667 53.5,2.83333 53,2.5C 47.3977,4.54206 41.5644,5.04206 35.5,4C 36.9814,3.01968 38.3147,1.85301 39.5,0.5C 44.3371,1.47046 49.0037,1.13712 53.5,-0.5 Z"/></g>
<g><path style="opacity:1" fill="#780c0c" d="M 116.5,14.5 C 115.005,14.4148 114.005,15.0815 113.5,16.5C 115.267,19.7698 117.6,22.6032 120.5,25C 118.167,26 116.5,27.6667 115.5,30C 114.5,30.3333 113.5,30.6667 112.5,31C 114.5,32 116.5,33 118.5,34C 117.934,34.9947 117.267,35.828 116.5,36.5C 111.84,34.0963 107.006,31.763 102,29.5C 100.311,28.1418 98.978,26.4751 98,24.5C 97.6667,25.1667 97.3333,25.8333 97,26.5C 94.0558,25.7434 91.0558,25.0767 88,24.5C 83.8966,25.5615 79.5633,25.5615 75,24.5C 70.8667,25.2905 66.7,26.1239 62.5,27C 61.2899,28.0391 60.2899,29.2058 59.5,30.5C 59.1667,30.5 58.8333,30.5 58.5,30.5C 53.0815,31.588 48.0815,33.7546 43.5,37C 42.6634,38.0113 42.33,39.1779 42.5,40.5C 40.8828,41.038 39.2161,41.3713 37.5,41.5C 36.3444,45.0024 34.3444,48.0024 31.5,50.5C 30.5713,51.6888 30.238,53.0222 30.5,54.5C 28.5714,54.2308 26.9047,54.7308 25.5,56C 25.8333,56.3333 26.1667,56.6667 26.5,57C 25.5,59.3333 24.5,61.6667 23.5,64C 23.8333,64.3333 24.1667,64.6667 24.5,65C 22.4598,67.1851 21.1264,69.6851 20.5,72.5C 19.5,72.5 18.5,72.5 17.5,72.5C 17.5792,73.9305 17.2458,75.2638 16.5,76.5C 18.5935,79.0025 19.5935,82.0025 19.5,85.5C 20.0586,93.4963 20.5586,101.496 21,109.5C 21.6667,110.833 22.3333,110.833 23,109.5C 23.4643,110.094 23.631,110.761 23.5,111.5C 22.5,111.5 21.5,111.5 20.5,111.5C 20.8034,114.588 19.4701,116.254 16.5,116.5C 16.762,115.022 16.4287,113.689 15.5,112.5C 14.5745,113.641 13.7412,113.641 13,112.5C 12.7935,109.377 12.1268,106.377 11,103.5C 9.95701,105.833 9.12368,108.166 8.5,110.5C 8.7989,108.396 8.46557,106.396 7.5,104.5C 6.81327,106.274 5.97993,107.941 5,109.5C 4.66667,108.833 4.33333,108.167 4,107.5C 2.83901,95.6482 2.17234,83.9816 2,72.5C 3.59847,69.7021 4.76514,66.7021 5.5,63.5C 6.33333,64.5 7.16667,65.5 8,66.5C 7.42974,63.5544 7.09641,60.5544 7,57.5C 9.5,54.5 12,51.5 14.5,48.5C 13.8333,47.5 13.1667,46.5 12.5,45.5C 13.934,43.7801 14.7674,41.7801 15,39.5C 16.8847,37.98 19.0514,36.98 21.5,36.5C 22.4287,37.6888 22.762,39.0222 22.5,40.5C 23.8221,40.67 24.9887,40.3366 26,39.5C 26.6888,36.5919 27.8555,33.9252 29.5,31.5C 30.6086,32.5896 31.6086,32.5896 32.5,31.5C 31.273,30.4096 30.4396,29.0762 30,27.5C 28.3567,28.512 27.19,29.512 26.5,30.5C 25.0683,30.2668 24.5683,29.6001 25,28.5C 26.8323,26.3699 28.6657,24.2033 30.5,22C 35.8102,22.8442 38.4769,20.6775 38.5,15.5C 39.8333,15.5 41.1667,15.5 42.5,15.5C 42.5,14.5 42.5,13.5 42.5,12.5C 43.6594,10.7497 45.326,9.74973 47.5,9.5C 52.513,8.33165 57.513,6.83165 62.5,5C 78.0796,1.8637 93.4129,3.19704 108.5,9C 111.756,10.116 114.422,11.9493 116.5,14.5 Z"/></g>
<g><path style="opacity:1" fill="#591111" d="M 143.5,37.5 C 140.049,34.0864 136.716,30.5864 133.5,27C 131.275,26.4389 129.275,25.4389 127.5,24C 128.089,22.1267 127.422,20.46 125.5,19C 122.714,16.9404 119.714,15.4404 116.5,14.5C 114.422,11.9493 111.756,10.116 108.5,9C 93.4129,3.19704 78.0796,1.8637 62.5,5C 57.513,6.83165 52.513,8.33165 47.5,9.5C 48.1667,8.83333 48.8333,8.16667 49.5,7.5C 54.844,6.1085 60.1774,4.6085 65.5,3C 98.8464,-1.48251 124.846,10.0175 143.5,37.5 Z"/></g>
<g><path style="opacity:1" fill="#601011" d="M 116.5,36.5 C 118,38.1786 119.833,39.5119 122,40.5C 122.754,43.6844 124.254,46.3511 126.5,48.5C 126.5,49.1667 126.5,49.8333 126.5,50.5C 113.436,33.7961 96.4358,26.1295 75.5,27.5C 69.9191,27.251 64.5857,28.251 59.5,30.5C 60.2899,29.2058 61.2899,28.0391 62.5,27C 66.7,26.1239 70.8667,25.2905 75,24.5C 79.5633,25.5615 83.8966,25.5615 88,24.5C 91.0558,25.0767 94.0558,25.7434 97,26.5C 97.3333,25.8333 97.6667,25.1667 98,24.5C 98.978,26.4751 100.311,28.1418 102,29.5C 107.006,31.763 111.84,34.0963 116.5,36.5 Z"/></g>
<g><path style="opacity:1" fill="#f4f2f1" d="M 75.5,27.5 C 83.4263,29.0127 91.4263,30.6793 99.5,32.5C 102.78,35.5958 106.446,37.9291 110.5,39.5C 110.5,41.1667 110.5,42.8333 110.5,44.5C 108.193,44.0137 106.027,44.0137 104,44.5C 103,43.8333 102,43.1667 101,42.5C 99.3005,43.4061 97.4672,43.7394 95.5,43.5C 96.8635,47.8544 99.8635,49.6877 104.5,49C 106.547,46.234 108.88,45.9007 111.5,48C 110.89,49.9472 110.057,51.7806 109,53.5C 108.667,52.8333 108.333,52.1667 108,51.5C 107.691,52.7659 107.191,53.9326 106.5,55C 107.43,56.1939 108.097,57.5272 108.5,59C 107.393,60.4402 107.393,61.9402 108.5,63.5C 108.332,65.1705 107.665,66.5039 106.5,67.5C 105.145,64.8118 103.145,62.8118 100.5,61.5C 100.167,61.5 99.8333,61.5 99.5,61.5C 97.2683,58.5486 94.2683,56.882 90.5,56.5C 85.9229,55.0103 81.0896,54.3437 76,54.5C 70.8184,54.7112 65.6517,55.0446 60.5,55.5C 61.8083,54.7677 63.1416,53.9344 64.5,53C 62.8934,51.951 62.2267,50.451 62.5,48.5C 65.8984,48.8204 69.2317,48.487 72.5,47.5C 72.2907,46.914 71.9574,46.414 71.5,46C 67.4423,45.6596 63.4423,44.9929 59.5,44C 56.8961,40.9686 54.2294,40.8019 51.5,43.5C 54.589,44.2989 57.2556,45.7989 59.5,48C 58.7894,49.2547 57.956,50.4214 57,51.5C 56.6667,51.1667 56.3333,50.8333 56,50.5C 53.5806,52.5848 50.7472,53.5848 47.5,53.5C 47.5952,50.7277 48.9285,48.7277 51.5,47.5C 50.3717,46.7379 49.2051,46.0712 48,45.5C 45.8352,46.5827 43.8352,47.916 42,49.5C 40.9412,49.3699 40.1079,48.8699 39.5,48C 40.8333,47.3333 42.1667,46.6667 43.5,46C 42.9747,45.3076 42.3081,44.8076 41.5,44.5C 38.3254,46.3218 37.3254,48.8218 38.5,52C 35.3451,54.9891 32.3451,58.1558 29.5,61.5C 29.6926,66.6768 28.0259,71.3435 24.5,75.5C 23.1667,83.5 23.1667,91.5 24.5,99.5C 25.2868,100.242 25.9535,101.075 26.5,102C 26.0826,104.193 25.7493,106.359 25.5,108.5C 19.4004,89.9277 21.0671,71.9277 30.5,54.5C 34.4899,49.8736 38.4899,45.2069 42.5,40.5C 47.5725,36.7632 52.9058,33.4299 58.5,30.5C 58.8333,30.5 59.1667,30.5 59.5,30.5C 64.5857,28.251 69.9191,27.251 75.5,27.5 Z"/></g>
<g><path style="opacity:1" fill="#790c0c" d="M 116.5,14.5 C 119.714,15.4404 122.714,16.9404 125.5,19C 127.422,20.46 128.089,22.1267 127.5,24C 129.275,25.4389 131.275,26.4389 133.5,27C 136.716,30.5864 140.049,34.0864 143.5,37.5C 143.818,41.8012 145.485,45.4678 148.5,48.5C 147.803,50.0707 147.47,51.5707 147.5,53C 151.523,55.7322 152.69,59.2322 151,63.5C 149.916,62.3349 149.083,61.0016 148.5,59.5C 147.675,58.6143 146.675,58.281 145.5,58.5C 146.373,63.1256 147.04,67.7923 147.5,72.5C 147.167,74.5 146.833,76.5 146.5,78.5C 145.914,78.2907 145.414,77.9574 145,77.5C 144.213,71.8263 143.38,66.1596 142.5,60.5C 144.733,57.2111 144.9,53.8778 143,50.5C 141.783,53.9935 140.283,57.3268 138.5,60.5C 139.348,62.4086 139.682,64.4086 139.5,66.5C 138.167,66.5 136.833,66.5 135.5,66.5C 135.672,61.4672 135.839,56.4672 136,51.5C 134.907,53.3492 133.574,55.0158 132,56.5C 131.219,55.2713 130.719,53.938 130.5,52.5C 133.465,46.7982 132.132,45.4649 126.5,48.5C 124.254,46.3511 122.754,43.6844 122,40.5C 119.833,39.5119 118,38.1786 116.5,36.5C 117.267,35.828 117.934,34.9947 118.5,34C 116.5,33 114.5,32 112.5,31C 113.5,30.6667 114.5,30.3333 115.5,30C 116.5,27.6667 118.167,26 120.5,25C 117.6,22.6032 115.267,19.7698 113.5,16.5C 114.005,15.0815 115.005,14.4148 116.5,14.5 Z"/></g>
<g><path style="opacity:1" fill="#591111" d="M 58.5,30.5 C 52.9058,33.4299 47.5725,36.7632 42.5,40.5C 42.33,39.1779 42.6634,38.0113 43.5,37C 48.0815,33.7546 53.0815,31.588 58.5,30.5 Z"/></g>
<g><path style="opacity:1" fill="#f5e4e1" d="M 75.5,27.5 C 96.4358,26.1295 113.436,33.7961 126.5,50.5C 130.027,56.2211 133.027,62.2211 135.5,68.5C 135.5,69.5 135.5,70.5 135.5,71.5C 133.477,69.7152 131.811,67.5486 130.5,65C 133.167,64.3333 133.167,63.6667 130.5,63C 130.833,62.6667 131.167,62.3333 131.5,62C 127.806,56.4029 123.972,50.9029 120,45.5C 117.318,42.7116 114.151,40.7116 110.5,39.5C 106.446,37.9291 102.78,35.5958 99.5,32.5C 91.4263,30.6793 83.4263,29.0127 75.5,27.5 Z"/></g>
<g><path style="opacity:1" fill="#561413" d="M 42.5,40.5 C 38.4899,45.2069 34.4899,49.8736 30.5,54.5C 30.238,53.0222 30.5713,51.6888 31.5,50.5C 34.3444,48.0024 36.3444,45.0024 37.5,41.5C 39.2161,41.3713 40.8828,41.038 42.5,40.5 Z"/></g>
<g><path style="opacity:1" fill="#efdad9" d="M 90.5,56.5 C 84.5036,55.8663 78.5036,55.6997 72.5,56C 66.8372,56.0824 61.5039,57.4157 56.5,60C 53.2879,62.7311 51.7879,66.2311 52,70.5C 51.8306,75.1609 51.9973,79.8276 52.5,84.5C 51.3479,83.1664 50.3479,81.6664 49.5,80C 50.3419,73.3268 50.5086,66.4935 50,59.5C 53.1159,57.1934 56.6159,55.8601 60.5,55.5C 65.6517,55.0446 70.8184,54.7112 76,54.5C 81.0896,54.3437 85.9229,55.0103 90.5,56.5 Z"/></g>
<g><path style="opacity:1" fill="#f3f4f4" d="M 60.5,55.5 C 56.6159,55.8601 53.1159,57.1934 50,59.5C 50.5086,66.4935 50.3419,73.3268 49.5,80C 50.3479,81.6664 51.3479,83.1664 52.5,84.5C 53.1899,91.0328 56.8565,94.6994 63.5,95.5C 62.5967,97.6204 61.2633,97.9538 59.5,96.5C 56.9044,97.4822 54.2377,98.1489 51.5,98.5C 50.9771,101.028 49.9771,103.361 48.5,105.5C 50.0748,109.049 51.0748,112.715 51.5,116.5C 52.0553,118.729 53.3886,120.395 55.5,121.5C 55.2907,122.086 54.9574,122.586 54.5,123C 59.6227,123.804 64.6227,124.804 69.5,126C 65.555,127.104 61.555,127.604 57.5,127.5C 59.9419,128.562 61.9419,130.062 63.5,132C 62.9554,135.187 62.2887,138.354 61.5,141.5C 60.8076,140.975 60.3076,140.308 60,139.5C 58.9335,141.283 57.4335,141.783 55.5,141C 47.5278,135.817 42.0278,128.65 39,119.5C 36.2915,118.067 34.1248,116.067 32.5,113.5C 31.8076,114.025 31.3076,114.692 31,115.5C 29.147,113.097 27.3137,110.764 25.5,108.5C 25.7493,106.359 26.0826,104.193 26.5,102C 25.9535,101.075 25.2868,100.242 24.5,99.5C 23.1667,91.5 23.1667,83.5 24.5,75.5C 28.0259,71.3435 29.6926,66.6768 29.5,61.5C 32.3451,58.1558 35.3451,54.9891 38.5,52C 37.3254,48.8218 38.3254,46.3218 41.5,44.5C 42.3081,44.8076 42.9747,45.3076 43.5,46C 42.1667,46.6667 40.8333,47.3333 39.5,48C 40.1079,48.8699 40.9412,49.3699 42,49.5C 43.8352,47.916 45.8352,46.5827 48,45.5C 49.2051,46.0712 50.3717,46.7379 51.5,47.5C 48.9285,48.7277 47.5952,50.7277 47.5,53.5C 50.7472,53.5848 53.5806,52.5848 56,50.5C 56.3333,50.8333 56.6667,51.1667 57,51.5C 57.956,50.4214 58.7894,49.2547 59.5,48C 57.2556,45.7989 54.589,44.2989 51.5,43.5C 54.2294,40.8019 56.8961,40.9686 59.5,44C 63.4423,44.9929 67.4423,45.6596 71.5,46C 71.9574,46.414 72.2907,46.914 72.5,47.5C 69.2317,48.487 65.8984,48.8204 62.5,48.5C 62.2267,50.451 62.8934,51.951 64.5,53C 63.1416,53.9344 61.8083,54.7677 60.5,55.5 Z"/></g>
<g><path style="opacity:1" fill="#f3f4f4" d="M 110.5,39.5 C 114.151,40.7116 117.318,42.7116 120,45.5C 123.972,50.9029 127.806,56.4029 131.5,62C 131.167,62.3333 130.833,62.6667 130.5,63C 133.167,63.6667 133.167,64.3333 130.5,65C 131.811,67.5486 133.477,69.7152 135.5,71.5C 135.389,72.1174 135.056,72.6174 134.5,73C 137.017,76.2953 137.017,79.6286 134.5,83C 135.253,84.487 136.086,84.6537 137,83.5C 137.244,95.1712 134.41,105.838 128.5,115.5C 125.148,116.553 121.815,116.553 118.5,115.5C 117.102,113.87 116.102,112.036 115.5,110C 114.207,109.51 112.873,109.343 111.5,109.5C 111.5,105.833 111.5,102.167 111.5,98.5C 111.433,95.234 113.099,93.734 116.5,94C 114.833,91 112.5,88.6667 109.5,87C 110.081,86.1074 110.415,85.1074 110.5,84C 109.687,82.0318 108.687,80.1984 107.5,78.5C 106.645,77.4693 105.978,76.3026 105.5,75C 106.322,72.5661 106.656,70.0661 106.5,67.5C 107.665,66.5039 108.332,65.1705 108.5,63.5C 107.393,61.9402 107.393,60.4402 108.5,59C 108.097,57.5272 107.43,56.1939 106.5,55C 107.191,53.9326 107.691,52.7659 108,51.5C 108.333,52.1667 108.667,52.8333 109,53.5C 110.057,51.7806 110.89,49.9472 111.5,48C 108.88,45.9007 106.547,46.234 104.5,49C 99.8635,49.6877 96.8635,47.8544 95.5,43.5C 97.4672,43.7394 99.3005,43.4061 101,42.5C 102,43.1667 103,43.8333 104,44.5C 106.027,44.0137 108.193,44.0137 110.5,44.5C 110.5,42.8333 110.5,41.1667 110.5,39.5 Z"/></g>
<g><path style="opacity:1" fill="#5a1616" d="M 90.5,56.5 C 94.2683,56.882 97.2683,58.5486 99.5,61.5C 96.7643,59.8043 93.7643,58.6377 90.5,58C 81.4759,57.4596 72.4759,57.793 63.5,59C 61.3333,60.5 59.1667,62 57,63.5C 56.9005,65.6526 56.0672,67.3192 54.5,68.5C 52.7814,75.466 53.7814,82.1326 57.5,88.5C 61.0023,89.007 64.0023,90.3403 66.5,92.5C 60.0457,92.6025 55.3791,89.9358 52.5,84.5C 51.9973,79.8276 51.8306,75.1609 52,70.5C 51.7879,66.2311 53.2879,62.7311 56.5,60C 61.5039,57.4157 66.8372,56.0824 72.5,56C 78.5036,55.6997 84.5036,55.8663 90.5,56.5 Z"/></g>
<g><path style="opacity:1" fill="#591414" d="M 99.5,61.5 C 99.8333,61.5 100.167,61.5 100.5,61.5C 102.353,65.9354 103.353,70.602 103.5,75.5C 99.5,75.5 95.5,75.5 91.5,75.5C 91.8729,72.0177 90.8729,69.0177 88.5,66.5C 81.8582,65.3358 75.1915,65.1691 68.5,66C 67.0692,66.4652 65.9025,67.2986 65,68.5C 64.0044,73.2288 64.5044,77.7288 66.5,82C 68.1341,82.4935 69.8008,82.6602 71.5,82.5C 75.5,83.1667 79.5,83.8333 83.5,84.5C 79.1539,84.6657 74.8206,84.499 70.5,84C 67.8807,83.8485 65.5473,83.0152 63.5,81.5C 61.6428,75.729 62.3095,70.3956 65.5,65.5C 73.4715,63.2881 81.4715,63.1214 89.5,65C 93.1366,66.4121 95.1366,69.0788 95.5,73C 97.4727,73.4955 99.4727,73.6621 101.5,73.5C 100.833,69.5 100.167,65.5 99.5,61.5 Z"/></g>
<g><path style="opacity:1" fill="#760c0b" d="M 148.5,48.5 C 152.584,54.4706 154.584,60.9706 154.5,68C 155.147,69.6095 155.98,71.1095 157,72.5C 157.667,81.8333 157.667,91.1667 157,100.5C 156.167,101.333 155.333,102.167 154.5,103C 155.049,106.415 155.049,110.248 154.5,114.5C 152.872,117.141 151.206,119.808 149.5,122.5C 147.366,123.703 146.032,125.537 145.5,128C 144.552,128.483 143.552,128.649 142.5,128.5C 142.831,124.086 143.665,119.752 145,115.5C 145.249,116.624 145.749,117.624 146.5,118.5C 147.349,116.106 148.349,113.773 149.5,111.5C 148.311,110.571 146.978,110.238 145.5,110.5C 145.714,108.856 145.38,107.356 144.5,106C 143.668,105.312 143.002,105.479 142.5,106.5C 141.897,107.635 141.564,108.635 141.5,109.5C 140.702,109.043 140.369,108.376 140.5,107.5C 140.36,105.876 141.027,104.71 142.5,104C 141.833,103.667 141.167,103.333 140.5,103C 140.331,100.677 140.997,98.3441 142.5,96C 140.64,93.2596 140.64,90.7596 142.5,88.5C 141.746,85.0365 140.746,81.7031 139.5,78.5C 140.104,75.989 140.437,73.489 140.5,71C 139.347,69.117 137.681,68.2837 135.5,68.5C 133.027,62.2211 130.027,56.2211 126.5,50.5C 126.5,49.8333 126.5,49.1667 126.5,48.5C 132.132,45.4649 133.465,46.7982 130.5,52.5C 130.719,53.938 131.219,55.2713 132,56.5C 133.574,55.0158 134.907,53.3492 136,51.5C 135.839,56.4672 135.672,61.4672 135.5,66.5C 136.833,66.5 138.167,66.5 139.5,66.5C 139.682,64.4086 139.348,62.4086 138.5,60.5C 140.283,57.3268 141.783,53.9935 143,50.5C 144.9,53.8778 144.733,57.2111 142.5,60.5C 143.38,66.1596 144.213,71.8263 145,77.5C 145.414,77.9574 145.914,78.2907 146.5,78.5C 146.833,76.5 147.167,74.5 147.5,72.5C 147.04,67.7923 146.373,63.1256 145.5,58.5C 146.675,58.281 147.675,58.6143 148.5,59.5C 149.083,61.0016 149.916,62.3349 151,63.5C 152.69,59.2322 151.523,55.7322 147.5,53C 147.47,51.5707 147.803,50.0707 148.5,48.5 Z"/></g>
<g><path style="opacity:1" fill="#f1e3df" d="M 100.5,61.5 C 103.145,62.8118 105.145,64.8118 106.5,67.5C 106.656,70.0661 106.322,72.5661 105.5,75C 105.978,76.3026 106.645,77.4693 107.5,78.5C 103.203,77.7495 99.8699,79.0829 97.5,82.5C 98.8237,83.9347 100.49,84.9347 102.5,85.5C 103.309,87.0709 103.643,88.7376 103.5,90.5C 98.7831,86.2248 93.1165,84.2248 86.5,84.5C 85.5,84.5 84.5,84.5 83.5,84.5C 79.5,83.8333 75.5,83.1667 71.5,82.5C 69.8008,82.6602 68.1341,82.4935 66.5,82C 64.5044,77.7288 64.0044,73.2288 65,68.5C 65.9025,67.2986 67.0692,66.4652 68.5,66C 75.1915,65.1691 81.8582,65.3358 88.5,66.5C 90.8729,69.0177 91.8729,72.0177 91.5,75.5C 95.5,75.5 99.5,75.5 103.5,75.5C 103.353,70.602 102.353,65.9354 100.5,61.5 Z"/></g>
<g><path style="opacity:1" fill="#eff3f2" d="M 71.5,82.5 C 68.9819,77.9393 67.9819,72.9393 68.5,67.5C 74.7974,68.3197 81.1308,68.653 87.5,68.5C 86.7002,73.1937 88.3669,76.6937 92.5,79C 88.7247,81.5418 84.7247,82.0418 80.5,80.5C 77.3926,80.7598 74.3926,81.4265 71.5,82.5 Z"/></g>
<g><path style="opacity:1" fill="#5b1113" d="M 143.5,37.5 C 144.458,37.9528 145.292,38.6195 146,39.5C 159.734,63.4455 162.567,88.4455 154.5,114.5C 155.049,110.248 155.049,106.415 154.5,103C 155.333,102.167 156.167,101.333 157,100.5C 157.667,91.1667 157.667,81.8333 157,72.5C 155.98,71.1095 155.147,69.6095 154.5,68C 154.584,60.9706 152.584,54.4706 148.5,48.5C 145.485,45.4678 143.818,41.8012 143.5,37.5 Z"/></g>
<g><path style="opacity:1" fill="#750e0e" d="M 99.5,61.5 C 100.167,65.5 100.833,69.5 101.5,73.5C 99.4727,73.6621 97.4727,73.4955 95.5,73C 95.1366,69.0788 93.1366,66.4121 89.5,65C 81.4715,63.1214 73.4715,63.2881 65.5,65.5C 62.3095,70.3956 61.6428,75.729 63.5,81.5C 65.5473,83.0152 67.8807,83.8485 70.5,84C 74.8206,84.499 79.1539,84.6657 83.5,84.5C 84.5,84.5 85.5,84.5 86.5,84.5C 89.7911,85.8013 93.2911,86.8013 97,87.5C 98.338,88.5061 99.6713,89.5061 101,90.5C 102.006,94.5975 102.506,98.7642 102.5,103C 102.714,107.133 102.048,110.966 100.5,114.5C 99.5041,114.414 98.6708,114.748 98,115.5C 97.6924,114.692 97.1924,114.025 96.5,113.5C 95.19,106.944 95.19,100.444 96.5,94C 87.5195,91.0463 78.1861,89.713 68.5,90C 67.1824,89.3058 66.3491,88.4725 66,87.5C 64.2108,88.4091 62.3774,88.5758 60.5,88C 59.0404,84.9113 57.207,82.0779 55,79.5C 54.5014,75.8484 54.3347,72.1817 54.5,68.5C 56.0672,67.3192 56.9005,65.6526 57,63.5C 59.1667,62 61.3333,60.5 63.5,59C 72.4759,57.793 81.4759,57.4596 90.5,58C 93.7643,58.6377 96.7643,59.8043 99.5,61.5 Z"/></g>
<g><path style="opacity:1" fill="#f2e0df" d="M 52.5,84.5 C 55.3791,89.9358 60.0457,92.6025 66.5,92.5C 74.9095,92.981 83.2428,93.981 91.5,95.5C 93.1196,100.839 92.7863,106.005 90.5,111C 82.7102,112.778 74.8769,112.945 67,111.5C 64.0501,108.863 62.8834,105.529 63.5,101.5C 59.8333,101.5 56.1667,101.5 52.5,101.5C 51.4075,108.206 53.0742,114.039 57.5,119C 59.4913,119.374 61.158,120.207 62.5,121.5C 60.7354,122.461 58.7354,122.795 56.5,122.5C 55.6837,119.893 54.0171,117.893 51.5,116.5C 51.0748,112.715 50.0748,109.049 48.5,105.5C 49.9771,103.361 50.9771,101.028 51.5,98.5C 54.2377,98.1489 56.9044,97.4822 59.5,96.5C 61.2633,97.9538 62.5967,97.6204 63.5,95.5C 56.8565,94.6994 53.1899,91.0328 52.5,84.5 Z"/></g>
<g><path style="opacity:1" fill="#f0f3f0" d="M 70.5,95.5 C 76.2055,95.1712 81.8722,95.5046 87.5,96.5C 91.5,100.5 91.5,104.5 87.5,108.5C 85.8333,107.5 84.5,106.167 83.5,104.5C 81.9373,105.945 80.604,107.611 79.5,109.5C 77.6053,108.027 75.9387,106.36 74.5,104.5C 73.2557,106.437 71.7557,108.104 70,109.5C 68.6988,108.902 67.8655,107.902 67.5,106.5C 68.0933,104.618 68.7599,102.785 69.5,101C 68.5,100.667 67.5,100.333 66.5,100C 69.4471,99.8882 70.7804,98.3882 70.5,95.5 Z"/></g>
<g><path style="opacity:1" fill="#650f10" d="M 30.5,54.5 C 21.0671,71.9277 19.4004,89.9277 25.5,108.5C 29.7258,121.056 37.0591,131.389 47.5,139.5C 46.1266,139.657 44.7932,139.49 43.5,139C 39.2947,133.966 34.9614,129.133 30.5,124.5C 28.9936,123.253 27.4936,123.253 26,124.5C 26.2727,122.049 25.7727,119.549 24.5,117C 24.8333,116.667 25.1667,116.333 25.5,116C 24.4178,114.67 23.7512,113.17 23.5,111.5C 23.631,110.761 23.4643,110.094 23,109.5C 22.3333,110.833 21.6667,110.833 21,109.5C 20.5586,101.496 20.0586,93.4963 19.5,85.5C 19.5935,82.0025 18.5935,79.0025 16.5,76.5C 17.2458,75.2638 17.5792,73.9305 17.5,72.5C 18.5,72.5 19.5,72.5 20.5,72.5C 21.1264,69.6851 22.4598,67.1851 24.5,65C 24.1667,64.6667 23.8333,64.3333 23.5,64C 24.5,61.6667 25.5,59.3333 26.5,57C 26.1667,56.6667 25.8333,56.3333 25.5,56C 26.9047,54.7308 28.5714,54.2308 30.5,54.5 Z"/></g>
<g><path style="opacity:1" fill="#f4f4f4" d="M 160.5,107.5 C 160.5,129.5 160.5,151.5 160.5,173.5C 135.167,173.5 109.833,173.5 84.5,173.5C 88.9074,172.861 93.2407,171.861 97.5,170.5C 102.965,169.234 108.299,167.567 113.5,165.5C 114.117,165.611 114.617,165.944 115,166.5C 117.707,164.064 120.873,162.564 124.5,162C 130.63,157.205 136.464,152.038 142,146.5C 147.361,136.952 152.527,126.786 157.5,116C 157.043,115.586 156.709,115.086 156.5,114.5C 157.1,111.651 158.433,109.318 160.5,107.5 Z"/></g>
<g><path style="opacity:1" fill="#6e0f0f" d="M 54.5,68.5 C 54.3347,72.1817 54.5014,75.8484 55,79.5C 57.207,82.0779 59.0404,84.9113 60.5,88C 62.3774,88.5758 64.2108,88.4091 66,87.5C 66.3491,88.4725 67.1824,89.3058 68.5,90C 78.1861,89.713 87.5195,91.0463 96.5,94C 95.19,100.444 95.19,106.944 96.5,113.5C 97.1924,114.025 97.6924,114.692 98,115.5C 98.6708,114.748 99.5041,114.414 100.5,114.5C 98.2356,118.135 94.9022,119.968 90.5,120C 82.1667,120.667 73.8333,120.667 65.5,120C 63.1029,118.282 60.4362,117.115 57.5,116.5C 55.874,113.781 54.5406,110.947 53.5,108C 53.4393,106.289 54.1059,104.956 55.5,104C 57.8098,103.503 60.1432,103.337 62.5,103.5C 62.2055,107.115 63.2055,110.282 65.5,113C 75.2998,115.086 84.9665,114.92 94.5,112.5C 94.8507,106.738 94.3507,101.072 93,95.5C 92.31,94.2617 91.81,94.2617 91.5,95.5C 83.2428,93.981 74.9095,92.981 66.5,92.5C 64.0023,90.3403 61.0023,89.007 57.5,88.5C 53.7814,82.1326 52.7814,75.466 54.5,68.5 Z"/></g>
<g><path style="opacity:1" fill="#edd4d1" d="M 103.5,90.5 C 105.045,91.2297 105.878,92.563 106,94.5C 106.896,102.246 106.563,109.913 105,117.5C 103.581,118.46 102.081,119.293 100.5,120C 101.833,120.667 101.833,121.333 100.5,122C 95.7141,122.216 91.0474,123.05 86.5,124.5C 82.5194,123.383 78.5194,123.383 74.5,124.5C 70.6645,123.726 66.9978,122.726 63.5,121.5C 73.1874,122.943 82.8541,122.777 92.5,121C 98.6482,120.524 102.482,117.357 104,111.5C 106.073,104.431 105.907,97.4311 103.5,90.5 Z"/></g>
<g><path style="opacity:1" fill="#680f10" d="M 42.5,12.5 C 42.5,13.5 42.5,14.5 42.5,15.5C 41.1667,15.5 39.8333,15.5 38.5,15.5C 38.4769,20.6775 35.8102,22.8442 30.5,22C 28.6657,24.2033 26.8323,26.3699 25,28.5C 24.5683,29.6001 25.0683,30.2668 26.5,30.5C 27.19,29.512 28.3567,28.512 30,27.5C 30.4396,29.0762 31.273,30.4096 32.5,31.5C 31.6086,32.5896 30.6086,32.5896 29.5,31.5C 27.8555,33.9252 26.6888,36.5919 26,39.5C 24.9887,40.3366 23.8221,40.67 22.5,40.5C 22.762,39.0222 22.4287,37.6888 21.5,36.5C 19.0514,36.98 16.8847,37.98 15,39.5C 14.7674,41.7801 13.934,43.7801 12.5,45.5C 13.1667,46.5 13.8333,47.5 14.5,48.5C 12,51.5 9.5,54.5 7,57.5C 7.09641,60.5544 7.42974,63.5544 8,66.5C 7.16667,65.5 6.33333,64.5 5.5,63.5C 4.76514,66.7021 3.59847,69.7021 2,72.5C 2.17234,83.9816 2.83901,95.6482 4,107.5C 4.33333,108.167 4.66667,108.833 5,109.5C 5.97993,107.941 6.81327,106.274 7.5,104.5C 8.46557,106.396 8.7989,108.396 8.5,110.5C 5.70803,114.021 6.04137,117.187 9.5,120C 10.1043,122.524 10.771,125.024 11.5,127.5C 17.2167,132.572 20.8834,138.906 22.5,146.5C 8.24581,131.323 0.579141,113.323 -0.5,92.5C -0.5,89.1667 -0.5,85.8333 -0.5,82.5C 0.341892,73.7764 2.17523,65.1098 5,56.5C 12.0348,36.9806 24.5348,22.3139 42.5,12.5 Z"/></g>
<g><path style="opacity:1" fill="#591514" d="M 86.5,84.5 C 93.1165,84.2248 98.7831,86.2248 103.5,90.5C 105.907,97.4311 106.073,104.431 104,111.5C 102.482,117.357 98.6482,120.524 92.5,121C 82.8541,122.777 73.1874,122.943 63.5,121.5C 63.1667,121.5 62.8333,121.5 62.5,121.5C 61.158,120.207 59.4913,119.374 57.5,119C 53.0742,114.039 51.4075,108.206 52.5,101.5C 56.1667,101.5 59.8333,101.5 63.5,101.5C 62.8834,105.529 64.0501,108.863 67,111.5C 74.8769,112.945 82.7102,112.778 90.5,111C 92.7863,106.005 93.1196,100.839 91.5,95.5C 91.81,94.2617 92.31,94.2617 93,95.5C 94.3507,101.072 94.8507,106.738 94.5,112.5C 84.9665,114.92 75.2998,115.086 65.5,113C 63.2055,110.282 62.2055,107.115 62.5,103.5C 60.1432,103.337 57.8098,103.503 55.5,104C 54.1059,104.956 53.4393,106.289 53.5,108C 54.5406,110.947 55.874,113.781 57.5,116.5C 60.4362,117.115 63.1029,118.282 65.5,120C 73.8333,120.667 82.1667,120.667 90.5,120C 94.9022,119.968 98.2356,118.135 100.5,114.5C 102.048,110.966 102.714,107.133 102.5,103C 102.506,98.7642 102.006,94.5975 101,90.5C 99.6713,89.5061 98.338,88.5061 97,87.5C 93.2911,86.8013 89.7911,85.8013 86.5,84.5 Z"/></g>
<g><path style="opacity:1" fill="#780c0c" d="M 149.5,122.5 C 149.643,124.262 149.309,125.929 148.5,127.5C 145.766,129.956 143.766,132.956 142.5,136.5C 138.817,137.86 137.15,140.526 137.5,144.5C 135.296,146.168 132.796,148.501 130,151.5C 129.667,151.167 129.333,150.833 129,150.5C 128.71,152.044 128.044,153.377 127,154.5C 125.887,153.289 124.72,153.289 123.5,154.5C 121.352,157.388 119.019,160.055 116.5,162.5C 112.962,164.052 109.296,165.052 105.5,165.5C 103.833,165.5 102.167,165.5 100.5,165.5C 100.567,162.234 98.9008,160.734 95.5,161C 93.2189,159.149 93.2189,157.482 95.5,156C 97.7695,155.242 99.9361,155.409 102,156.5C 100.526,154.096 99.3589,151.43 98.5,148.5C 101.187,148.664 103.854,148.497 106.5,148C 108.567,142.64 112.734,139.14 119,137.5C 119.772,137.645 120.439,137.978 121,138.5C 123.487,136.838 124.987,134.504 125.5,131.5C 126.086,131.709 126.586,132.043 127,132.5C 127.494,130.866 127.66,129.199 127.5,127.5C 129.167,127.5 130.833,127.5 132.5,127.5C 132.838,125.146 133.338,122.813 134,120.5C 137.069,118.062 138.069,115.062 137,111.5C 137.333,111.833 137.667,112.167 138,112.5C 139.113,111.24 139.28,110.073 138.5,109C 139.044,108.283 139.711,107.783 140.5,107.5C 140.369,108.376 140.702,109.043 141.5,109.5C 141.564,108.635 141.897,107.635 142.5,106.5C 143.002,105.479 143.668,105.312 144.5,106C 145.38,107.356 145.714,108.856 145.5,110.5C 146.978,110.238 148.311,110.571 149.5,111.5C 148.349,113.773 147.349,116.106 146.5,118.5C 145.749,117.624 145.249,116.624 145,115.5C 143.665,119.752 142.831,124.086 142.5,128.5C 143.552,128.649 144.552,128.483 145.5,128C 146.032,125.537 147.366,123.703 149.5,122.5 Z"/></g>
<g><path style="opacity:1" fill="#f3f0f0" d="M 135.5,71.5 C 142.339,98.8147 134.672,121.315 112.5,139C 90.9238,152.825 69.2571,152.991 47.5,139.5C 37.0591,131.389 29.7258,121.056 25.5,108.5C 27.3137,110.764 29.147,113.097 31,115.5C 31.3076,114.692 31.8076,114.025 32.5,113.5C 34.1248,116.067 36.2915,118.067 39,119.5C 42.0278,128.65 47.5278,135.817 55.5,141C 57.4335,141.783 58.9335,141.283 60,139.5C 60.3076,140.308 60.8076,140.975 61.5,141.5C 62.2887,138.354 62.9554,135.187 63.5,132C 61.9419,130.062 59.9419,128.562 57.5,127.5C 61.555,127.604 65.555,127.104 69.5,126C 64.6227,124.804 59.6227,123.804 54.5,123C 54.9574,122.586 55.2907,122.086 55.5,121.5C 53.3886,120.395 52.0553,118.729 51.5,116.5C 54.0171,117.893 55.6837,119.893 56.5,122.5C 58.7354,122.795 60.7354,122.461 62.5,121.5C 62.8333,121.5 63.1667,121.5 63.5,121.5C 66.9978,122.726 70.6645,123.726 74.5,124.5C 78.5194,123.383 82.5194,123.383 86.5,124.5C 91.0474,123.05 95.7141,122.216 100.5,122C 101.833,121.333 101.833,120.667 100.5,120C 102.081,119.293 103.581,118.46 105,117.5C 106.563,109.913 106.896,102.246 106,94.5C 105.878,92.563 105.045,91.2297 103.5,90.5C 103.643,88.7376 103.309,87.0709 102.5,85.5C 100.49,84.9347 98.8237,83.9347 97.5,82.5C 99.8699,79.0829 103.203,77.7495 107.5,78.5C 108.687,80.1984 109.687,82.0318 110.5,84C 110.415,85.1074 110.081,86.1074 109.5,87C 112.5,88.6667 114.833,91 116.5,94C 113.099,93.734 111.433,95.234 111.5,98.5C 110.698,97.0484 110.198,95.3817 110,93.5C 108.374,96.3192 108.207,99.3192 109.5,102.5C 109.028,111.026 106.861,119.026 103,126.5C 102.592,124.59 101.425,123.59 99.5,123.5C 96.8853,124.269 94.2186,124.603 91.5,124.5C 92.9366,126.96 93.9366,129.626 94.5,132.5C 95.8333,132.5 97.1667,132.5 98.5,132.5C 98.5,133.833 98.5,135.167 98.5,136.5C 100.722,136.178 102.556,136.845 104,138.5C 106.475,135.476 109.475,134.81 113,136.5C 116.833,134 120,130.833 122.5,127C 121.833,126.833 121.167,126.667 120.5,126.5C 118.5,127.833 116.5,129.167 114.5,130.5C 112.828,126.982 113.995,124.982 118,124.5C 119,122.5 120,120.5 121,118.5C 125.003,121.249 127.503,120.249 128.5,115.5C 134.41,105.838 137.244,95.1712 137,83.5C 136.086,84.6537 135.253,84.487 134.5,83C 137.017,79.6286 137.017,76.2953 134.5,73C 135.056,72.6174 135.389,72.1174 135.5,71.5 Z"/></g>
<g><path style="opacity:1" fill="#f2f4f4" d="M 111.5,98.5 C 111.5,102.167 111.5,105.833 111.5,109.5C 112.873,109.343 114.207,109.51 115.5,110C 116.102,112.036 117.102,113.87 118.5,115.5C 121.815,116.553 125.148,116.553 128.5,115.5C 127.503,120.249 125.003,121.249 121,118.5C 120,120.5 119,122.5 118,124.5C 113.995,124.982 112.828,126.982 114.5,130.5C 116.5,129.167 118.5,127.833 120.5,126.5C 121.167,126.667 121.833,126.833 122.5,127C 120,130.833 116.833,134 113,136.5C 109.475,134.81 106.475,135.476 104,138.5C 102.556,136.845 100.722,136.178 98.5,136.5C 98.5,135.167 98.5,133.833 98.5,132.5C 97.1667,132.5 95.8333,132.5 94.5,132.5C 93.9366,129.626 92.9366,126.96 91.5,124.5C 94.2186,124.603 96.8853,124.269 99.5,123.5C 101.425,123.59 102.592,124.59 103,126.5C 106.861,119.026 109.028,111.026 109.5,102.5C 108.207,99.3192 108.374,96.3192 110,93.5C 110.198,95.3817 110.698,97.0484 111.5,98.5 Z"/></g>
<g><path style="opacity:1" fill="#6c0e10" d="M 135.5,68.5 C 137.681,68.2837 139.347,69.117 140.5,71C 140.437,73.489 140.104,75.989 139.5,78.5C 140.746,81.7031 141.746,85.0365 142.5,88.5C 140.64,90.7596 140.64,93.2596 142.5,96C 140.997,98.3441 140.331,100.677 140.5,103C 141.167,103.333 141.833,103.667 142.5,104C 141.027,104.71 140.36,105.876 140.5,107.5C 139.711,107.783 139.044,108.283 138.5,109C 139.28,110.073 139.113,111.24 138,112.5C 137.667,112.167 137.333,111.833 137,111.5C 138.069,115.062 137.069,118.062 134,120.5C 133.338,122.813 132.838,125.146 132.5,127.5C 130.833,127.5 129.167,127.5 127.5,127.5C 127.66,129.199 127.494,130.866 127,132.5C 126.586,132.043 126.086,131.709 125.5,131.5C 124.987,134.504 123.487,136.838 121,138.5C 120.439,137.978 119.772,137.645 119,137.5C 112.734,139.14 108.567,142.64 106.5,148C 103.854,148.497 101.187,148.664 98.5,148.5C 89.4306,150.988 80.0972,151.988 70.5,151.5C 60.5569,152.062 52.8902,148.062 47.5,139.5C 69.2571,152.991 90.9238,152.825 112.5,139C 134.672,121.315 142.339,98.8147 135.5,71.5C 135.5,70.5 135.5,69.5 135.5,68.5 Z"/></g>
<g><path style="opacity:1" fill="#f3f2f2" d="M -0.5,92.5 C 0.579141,113.323 8.24581,131.323 22.5,146.5C 33.5882,159.391 47.5882,167.724 64.5,171.5C 64.8333,171.5 65.1667,171.5 65.5,171.5C 68.5,172.167 71.5,172.833 74.5,173.5C 49.5,173.5 24.5,173.5 -0.5,173.5C -0.5,146.5 -0.5,119.5 -0.5,92.5 Z"/></g>
<g><path style="opacity:1" fill="#780c0c" d="M 23.5,111.5 C 23.7512,113.17 24.4178,114.67 25.5,116C 25.1667,116.333 24.8333,116.667 24.5,117C 25.7727,119.549 26.2727,122.049 26,124.5C 27.4936,123.253 28.9936,123.253 30.5,124.5C 34.9614,129.133 39.2947,133.966 43.5,139C 44.7932,139.49 46.1266,139.657 47.5,139.5C 52.8902,148.062 60.5569,152.062 70.5,151.5C 71.8705,153.141 73.7039,154.141 76,154.5C 82.0576,152.62 88.2242,151.786 94.5,152C 91.1608,153.127 87.9941,154.627 85,156.5C 84.8333,156.833 84.6667,157.167 84.5,157.5C 85.9079,158.243 87.2412,159.077 88.5,160C 80.3033,160.636 71.9699,161.136 63.5,161.5C 61.4419,163.846 59.1085,165.846 56.5,167.5C 44.4005,163.215 34.0671,156.382 25.5,147C 24.552,146.517 23.552,146.351 22.5,146.5C 20.8834,138.906 17.2167,132.572 11.5,127.5C 10.771,125.024 10.1043,122.524 9.5,120C 6.04137,117.187 5.70803,114.021 8.5,110.5C 9.12368,108.166 9.95701,105.833 11,103.5C 12.1268,106.377 12.7935,109.377 13,112.5C 13.7412,113.641 14.5745,113.641 15.5,112.5C 16.4287,113.689 16.762,115.022 16.5,116.5C 19.4701,116.254 20.8034,114.588 20.5,111.5C 21.5,111.5 22.5,111.5 23.5,111.5 Z"/></g>
<g><path style="opacity:1" fill="#5f1112" d="M 154.5,114.5 C 154.477,116.927 153.977,119.26 153,121.5C 145.48,139.508 133.314,153.175 116.5,162.5C 119.019,160.055 121.352,157.388 123.5,154.5C 124.72,153.289 125.887,153.289 127,154.5C 128.044,153.377 128.71,152.044 129,150.5C 129.333,150.833 129.667,151.167 130,151.5C 132.796,148.501 135.296,146.168 137.5,144.5C 137.15,140.526 138.817,137.86 142.5,136.5C 143.766,132.956 145.766,129.956 148.5,127.5C 149.309,125.929 149.643,124.262 149.5,122.5C 151.206,119.808 152.872,117.141 154.5,114.5 Z"/></g>
<g><path style="opacity:1" fill="#760c0c" d="M 98.5,148.5 C 99.3589,151.43 100.526,154.096 102,156.5C 99.9361,155.409 97.7695,155.242 95.5,156C 93.2189,157.482 93.2189,159.149 95.5,161C 98.9008,160.734 100.567,162.234 100.5,165.5C 102.167,165.5 103.833,165.5 105.5,165.5C 102.53,166.653 99.8633,168.32 97.5,170.5C 86.8518,171.277 76.1851,171.61 65.5,171.5C 65.1667,171.5 64.8333,171.5 64.5,171.5C 62.0908,168.959 59.4242,167.626 56.5,167.5C 59.1085,165.846 61.4419,163.846 63.5,161.5C 71.9699,161.136 80.3033,160.636 88.5,160C 87.2412,159.077 85.9079,158.243 84.5,157.5C 84.6667,157.167 84.8333,156.833 85,156.5C 87.9941,154.627 91.1608,153.127 94.5,152C 88.2242,151.786 82.0576,152.62 76,154.5C 73.7039,154.141 71.8705,153.141 70.5,151.5C 80.0972,151.988 89.4306,150.988 98.5,148.5 Z"/></g>
<g><path style="opacity:1" fill="#5d0f11" d="M 22.5,146.5 C 23.552,146.351 24.552,146.517 25.5,147C 34.0671,156.382 44.4005,163.215 56.5,167.5C 59.4242,167.626 62.0908,168.959 64.5,171.5C 47.5882,167.724 33.5882,159.391 22.5,146.5 Z"/></g>
<g><path style="opacity:1" fill="#551214" d="M 116.5,162.5 C 115.694,163.728 114.694,164.728 113.5,165.5C 108.299,167.567 102.965,169.234 97.5,170.5C 99.8633,168.32 102.53,166.653 105.5,165.5C 109.296,165.052 112.962,164.052 116.5,162.5 Z"/></g>
<g><path style="opacity:1" fill="#5d1116" d="M 97.5,170.5 C 93.2407,171.861 88.9074,172.861 84.5,173.5C 81.1667,173.5 77.8333,173.5 74.5,173.5C 71.5,172.833 68.5,172.167 65.5,171.5C 76.1851,171.61 86.8518,171.277 97.5,170.5 Z"/></g>
</svg>
